Coordinates
version=1
nRows=14
nColumns=33
inDegrees=yes

Units are S.I. units (second, meters, Newtons, ...)
Angles are in degrees.

endheader
time	ground_thorax_rot_x	ground_thorax_rot_y	ground_thorax_rot_z	ground_thorax_tx	ground_thorax_ty	ground_thorax_tz	clav_prot_r	clav_elev_r	scapula_abduction_r	scapula_elevation_r	scapula_upward_rot_r	scapula_winging_r	shoulder_elv_r	plane_of_elev_r	axial_rot_r	elbow_flexion_r	pro_sup_r	wrist_flex_r	wrist_dev_r	clav_prot_l	clav_elev_l	scapula_abduction_l	scapula_elevation_l	scapula_upward_rot_l	scapula_winging_l	shoulder_elv_l	plane_of_elev_l	axial_rot_l	elbow_flexion_l	pro_sup_l	wrist_flex_l	wrist_dev_l	
7.3400	30.900315	27.697944	36.276915	-111.682417	789.646546	6.411339	14.243179	36.531020	35.329858	45.000000	-45.000000	-2600.004914	-1548.816382	144.220798	180.000000	2890.092396	56.043758	23.738889	12.115876	6.789652	-45.000000	-37.103816	45.000000	-44.778819	2253.585110	-1368.083261	22.014002	-50.911019	370.043482	21.661319	8.248463	-19.810851	
7.3500	31.113157	27.411079	35.819189	-114.507579	790.682438	6.438516	14.245874	36.521547	35.411932	45.000000	-45.000000	-2600.172553	-1548.602689	144.153651	180.000000	2890.286614	56.039804	23.760339	11.986449	6.802589	-45.000000	-37.182082	45.000000	-44.594258	2253.719284	-1367.903700	22.103760	-50.554166	370.138398	21.280778	8.207273	-19.837438	
7.3600	31.338301	27.088558	35.317191	-117.379499	791.746190	6.461901	14.243523	36.528601	35.499687	45.000000	-45.000000	-2600.321965	-1548.381680	144.089329	180.000000	2890.491208	56.045206	23.772093	11.840214	6.802959	-45.000000	-37.277372	45.000000	-44.299834	2253.862364	-1367.737217	22.170018	-50.243772	370.214561	20.880260	8.171447	-19.862489	
7.3700	31.579010	26.729440	34.764411	-120.291823	792.833405	6.481152	14.229944	36.546677	35.598695	45.000000	-45.000000	-2600.460782	-1548.159522	144.025072	180.000000	2890.704005	56.053586	23.778071	11.681951	6.788472	-45.000000	-37.386723	45.000000	-43.866831	2254.014890	-1367.597891	22.209310	-49.977938	370.260700	20.469654	8.136641	-19.883889	
7.3800	31.820534	26.358225	34.199754	-123.237065	793.938942	6.496391	14.208294	36.556048	35.696934	45.000000	-45.000000	-2600.602021	-1547.941958	143.955657	180.000000	2890.913620	56.059312	23.787667	11.527892	6.773607	-45.000000	-37.497859	45.000000	-43.400059	2254.176815	-1367.466318	22.241619	-49.750938	370.300363	20.044858	8.095034	-19.903676	
7.3900	32.060553	25.981639	33.628154	-126.206628	795.057105	6.508029	14.183202	36.554096	35.794522	45.000000	-45.000000	-2600.749132	-1547.733441	143.884103	180.000000	2891.116702	56.055627	23.796743	11.377166	6.756554	-45.000000	-37.609287	45.000000	-42.902213	2254.344893	-1367.344296	22.263195	-49.545157	370.337141	19.610404	8.053601	-19.924073	
7.4000	32.292287	25.609566	33.069566	-129.191764	796.182075	6.516583	14.154582	36.544836	35.887675	45.000000	-45.000000	-2600.901963	-1547.532339	143.815229	180.000000	2891.308960	56.037261	23.805901	11.233106	6.740638	-45.000000	-37.715779	45.000000	-42.426134	2254.515662	-1367.221241	22.282484	-49.353436	370.374795	19.167459	8.009128	-19.945197	
7.4100	32.515406	25.243254	32.523690	-132.184306	797.308332	6.522452	14.125720	36.530484	35.977273	45.000000	-45.000000	-2601.057151	-1547.340810	143.753517	180.000000	2891.488140	55.999495	23.811994	11.094321	6.724207	-45.000000	-37.817102	45.000000	-41.964546	2254.689213	-1367.099212	22.296114	-49.177511	370.411836	18.721489	7.964611	-19.967473	
7.4200	32.721739	24.893532	32.009404	-135.177416	798.431022	6.525790	14.097573	36.504631	36.054672	45.000000	-45.000000	-2601.217777	-1547.158292	143.694016	180.000000	2891.650042	55.939840	23.820515	10.969036	6.717332	-45.000000	-37.907818	45.000000	-41.589747	2254.863484	-1366.959504	22.320310	-49.012247	370.459461	18.266653	7.917679	-19.991691	
7.4300	32.916831	24.551257	31.508188	-138.165657	799.546193	6.526392	14.075682	36.479450	36.121485	45.000000	-45.000000	-2601.370018	-1546.979853	143.642402	180.000000	2891.795722	55.855314	23.820799	10.847567	6.713554	-45.000000	-37.996233	45.000000	-41.255944	2255.036325	-1366.807600	22.343789	-48.860222	370.510852	17.807324	7.878545	-20.018513	
7.4400	33.105475	24.211371	31.014370	-141.145128	800.650967	6.523706	14.049044	36.453061	36.185229	45.000000	-45.000000	-2601.522381	-1546.809573	143.592060	180.000000	2891.926936	55.746298	23.818942	10.733298	6.711283	-45.000000	-38.081502	45.000000	-40.951830	2255.206821	-1366.650913	22.367086	-48.715611	370.555405	17.341802	7.840621	-20.044717	
7.4500	33.288476	23.879230	30.528587	-144.113213	801.743591	6.516884	14.020701	36.421311	36.243242	45.000000	-45.000000	-2601.675225	-1546.647151	143.543850	180.000000	2892.040196	55.613835	23.815410	10.628196	6.713722	-45.000000	-38.157801	45.000000	-40.675167	2255.374401	-1366.496083	22.391531	-48.591057	370.591273	16.867249	7.802147	-20.068153	
7.4600	33.464349	23.557499	30.057373	-147.067759	802.823165	6.504969	13.986767	36.380484	36.296390	45.000000	-45.000000	-2601.836885	-1546.495939	143.493504	180.000000	2892.140186	55.460136	23.814248	10.533889	6.722162	-45.000000	-38.221238	45.000000	-40.441625	2255.540159	-1366.340508	22.420645	-48.480710	370.624552	16.375907	7.760004	-20.088536	
7.4700	33.635550	23.244596	29.595916	-150.006519	803.889380	6.487059	13.952972	36.336904	36.340529	45.000000	-45.000000	-2601.995982	-1546.345608	143.446325	180.000000	2892.228401	55.286565	23.810334	10.446267	6.737965	-45.000000	-38.270610	45.000000	-40.238011	2255.702221	-1366.189858	22.451052	-48.391583	370.653220	15.864597	7.718377	-20.104663	
